<svg width="222" height="242" viewBox="0 0 222 242" fill="none" xmlns="http://www.w3.org/2000/svg">
<g filter="url(#filter0_d)">
<path d="M111.038 93.9999V105.481M111.038 93.9999L91 105.481M111.038 93.9999L130.887 105.481M111.038 105.481L120.868 111.278M111.038 105.481L101.207 111.278M120.868 111.278L111.038 117M120.868 111.278L130.887 105.481M120.868 111.278V122.987M111.038 117L101.207 111.278M111.038 117V128.595M101.207 111.278V122.987M101.207 111.278L91 105.481M111.038 128.595V140M111.038 128.595L120.868 122.987M111.038 128.595L101.207 122.987M111.038 140L91 128.595M111.038 140L130.887 128.659M120.868 122.987L130.886 128.532C130.936 128.559 130.937 128.631 130.887 128.659V128.659M101.207 122.987L91 128.595M91 128.595V105.481M130.887 105.481V128.659" stroke="url(#paint0_linear)" stroke-width="2"/>
</g>
<g filter="url(#filter1_d)">
<path d="M151.038 70.962V82.4431M151.038 70.962L131 82.4431M151.038 70.962L170.887 82.4431M151.038 82.4431L160.868 88.2404M151.038 82.4431L141.207 88.2404M160.868 88.2404L151.038 93.962M160.868 88.2404L170.887 82.4431M160.868 88.2404V99.9488M151.038 93.962L141.207 88.2404M151.038 93.962V105.557M141.207 88.2404V99.9488M141.207 88.2404L131 82.4431M151.038 105.557V116.962M151.038 105.557L160.868 99.9488M151.038 105.557L141.207 99.9488M151.038 116.962L131 105.557M151.038 116.962L170.887 105.621M160.868 99.9488L170.886 105.494C170.936 105.521 170.937 105.593 170.887 105.621V105.621M141.207 99.9488L131 105.557M131 105.557V82.4431M170.887 82.4431V105.621" stroke="url(#paint1_linear)" stroke-width="2"/>
</g>
<g filter="url(#filter2_d)">
<path d="M111.038 48V59.481M111.038 48L91 59.481M111.038 48L130.887 59.481M111.038 59.481L120.868 65.2784M111.038 59.481L101.207 65.2784M120.868 65.2784L111.038 71M120.868 65.2784L130.887 59.481M120.868 65.2784V76.9868M111.038 71L101.207 65.2784M111.038 71V82.5947M101.207 65.2784V76.9868M101.207 65.2784L91 59.481M111.038 82.5947V94M111.038 82.5947L120.868 76.9868M111.038 82.5947L101.207 76.9868M111.038 94L91 82.5947M111.038 94L130.887 82.6593M120.868 76.9868L130.886 82.5317C130.936 82.5593 130.937 82.631 130.887 82.6593V82.6593M101.207 76.9868L91 82.5947M91 82.5947V59.481M130.887 59.481V82.6593" stroke="url(#paint2_linear)" stroke-width="2"/>
</g>
<g filter="url(#filter3_d)">
<path d="M71.0377 70.962V82.4431M71.0377 70.962L51 82.4431M71.0377 70.962L90.887 82.4431M71.0377 82.4431L80.8682 88.2404M71.0377 82.4431L61.2072 88.2404M80.8682 88.2404L71.0377 93.962M80.8682 88.2404L90.887 82.4431M80.8682 88.2404V99.9488M71.0377 93.962L61.2072 88.2404M71.0377 93.962V105.557M61.2072 88.2404V99.9488M61.2072 88.2404L51 82.4431M71.0377 105.557V116.962M71.0377 105.557L80.8682 99.9488M71.0377 105.557L61.2072 99.9488M71.0377 116.962L51 105.557M71.0377 116.962L90.887 105.621M80.8682 99.9488L90.8861 105.494C90.9361 105.521 90.9366 105.593 90.887 105.621V105.621M61.2072 99.9488L51 105.557M51 105.557V82.4431M90.887 82.4431V105.621" stroke="url(#paint3_linear)" stroke-width="2"/>
</g>
<g filter="url(#filter4_d)">
<path d="M71.0377 116.962V128.443M71.0377 116.962L51 128.443M71.0377 116.962L90.887 128.443M71.0377 128.443L80.8682 134.24M71.0377 128.443L61.2072 134.24M80.8682 134.24L71.0377 139.962M80.8682 134.24L90.887 128.443M80.8682 134.24V145.949M71.0377 139.962L61.2072 134.24M71.0377 139.962V151.557M61.2072 134.24V145.949M61.2072 134.24L51 128.443M71.0377 151.557V162.962M71.0377 151.557L80.8682 145.949M71.0377 151.557L61.2072 145.949M71.0377 162.962L51 151.557M71.0377 162.962L90.887 151.621M80.8682 145.949L90.8861 151.494C90.9361 151.521 90.9366 151.593 90.887 151.621V151.621M61.2072 145.949L51 151.557M51 151.557V128.443M90.887 128.443V151.621" stroke="url(#paint4_linear)" stroke-width="2"/>
</g>
<g filter="url(#filter5_d)">
<path d="M111.038 140V151.481M111.038 140L91 151.481M111.038 140L130.887 151.481M111.038 151.481L120.868 157.278M111.038 151.481L101.207 157.278M120.868 157.278L111.038 163M120.868 157.278L130.887 151.481M120.868 157.278V168.987M111.038 163L101.207 157.278M111.038 163V174.595M101.207 157.278V168.987M101.207 157.278L91 151.481M111.038 174.595V186M111.038 174.595L120.868 168.987M111.038 174.595L101.207 168.987M111.038 186L91 174.595M111.038 186L130.887 174.659M120.868 168.987L130.886 174.532C130.936 174.559 130.937 174.631 130.887 174.659V174.659M101.207 168.987L91 174.595M91 174.595V151.481M130.887 151.481V174.659" stroke="url(#paint5_linear)" stroke-width="2"/>
</g>
<g filter="url(#filter6_d)">
<path d="M151.038 116.962V128.443M151.038 116.962L131 128.443M151.038 116.962L170.887 128.443M151.038 128.443L160.868 134.24M151.038 128.443L141.207 134.24M160.868 134.24L151.038 139.962M160.868 134.24L170.887 128.443M160.868 134.24V145.949M151.038 139.962L141.207 134.24M151.038 139.962V151.557M141.207 134.24V145.949M141.207 134.24L131 128.443M151.038 151.557V162.962M151.038 151.557L160.868 145.949M151.038 151.557L141.207 145.949M151.038 162.962L131 151.557M151.038 162.962L170.887 151.621M160.868 145.949L170.886 151.494C170.936 151.521 170.937 151.593 170.887 151.621V151.621M141.207 145.949L131 151.557M131 151.557V128.443M170.887 128.443V151.621" stroke="url(#paint6_linear)" stroke-width="2"/>
</g>
<defs>
<filter id="filter0_d" x="40" y="46.8461" width="141.924" height="148.305" filterUnits="userSpaceOnUse" color-interpolation-filters="sRGB">
<feFlood flood-opacity="0" result="BackgroundImageFix"/>
<feColorMatrix in="SourceAlpha" type="matrix" values="0 0 0 0 0 0 0 0 0 0 0 0 0 0 0 0 0 0 127 0"/>
<feOffset dy="4"/>
<feGaussianBlur stdDeviation="25"/>
<feColorMatrix type="matrix" values="0 0 0 0 0 0 0 0 0 0 0 0 0 0 0 0 0 0 0.25 0"/>
<feBlend mode="normal" in2="BackgroundImageFix" result="effect1_dropShadow"/>
<feBlend mode="normal" in="SourceGraphic" in2="effect1_dropShadow" result="shape"/>
</filter>
<filter id="filter1_d" x="80" y="23.8082" width="141.924" height="148.305" filterUnits="userSpaceOnUse" color-interpolation-filters="sRGB">
<feFlood flood-opacity="0" result="BackgroundImageFix"/>
<feColorMatrix in="SourceAlpha" type="matrix" values="0 0 0 0 0 0 0 0 0 0 0 0 0 0 0 0 0 0 127 0"/>
<feOffset dy="4"/>
<feGaussianBlur stdDeviation="25"/>
<feColorMatrix type="matrix" values="0 0 0 0 0 0 0 0 0 0 0 0 0 0 0 0 0 0 0.25 0"/>
<feBlend mode="normal" in2="BackgroundImageFix" result="effect1_dropShadow"/>
<feBlend mode="normal" in="SourceGraphic" in2="effect1_dropShadow" result="shape"/>
</filter>
<filter id="filter2_d" x="40" y="0.846191" width="141.924" height="148.305" filterUnits="userSpaceOnUse" color-interpolation-filters="sRGB">
<feFlood flood-opacity="0" result="BackgroundImageFix"/>
<feColorMatrix in="SourceAlpha" type="matrix" values="0 0 0 0 0 0 0 0 0 0 0 0 0 0 0 0 0 0 127 0"/>
<feOffset dy="4"/>
<feGaussianBlur stdDeviation="25"/>
<feColorMatrix type="matrix" values="0 0 0 0 0 0 0 0 0 0 0 0 0 0 0 0 0 0 0.25 0"/>
<feBlend mode="normal" in2="BackgroundImageFix" result="effect1_dropShadow"/>
<feBlend mode="normal" in="SourceGraphic" in2="effect1_dropShadow" result="shape"/>
</filter>
<filter id="filter3_d" x="0" y="23.8082" width="141.924" height="148.305" filterUnits="userSpaceOnUse" color-interpolation-filters="sRGB">
<feFlood flood-opacity="0" result="BackgroundImageFix"/>
<feColorMatrix in="SourceAlpha" type="matrix" values="0 0 0 0 0 0 0 0 0 0 0 0 0 0 0 0 0 0 127 0"/>
<feOffset dy="4"/>
<feGaussianBlur stdDeviation="25"/>
<feColorMatrix type="matrix" values="0 0 0 0 0 0 0 0 0 0 0 0 0 0 0 0 0 0 0.25 0"/>
<feBlend mode="normal" in2="BackgroundImageFix" result="effect1_dropShadow"/>
<feBlend mode="normal" in="SourceGraphic" in2="effect1_dropShadow" result="shape"/>
</filter>
<filter id="filter4_d" x="0" y="69.8082" width="141.924" height="148.305" filterUnits="userSpaceOnUse" color-interpolation-filters="sRGB">
<feFlood flood-opacity="0" result="BackgroundImageFix"/>
<feColorMatrix in="SourceAlpha" type="matrix" values="0 0 0 0 0 0 0 0 0 0 0 0 0 0 0 0 0 0 127 0"/>
<feOffset dy="4"/>
<feGaussianBlur stdDeviation="25"/>
<feColorMatrix type="matrix" values="0 0 0 0 0 0 0 0 0 0 0 0 0 0 0 0 0 0 0.25 0"/>
<feBlend mode="normal" in2="BackgroundImageFix" result="effect1_dropShadow"/>
<feBlend mode="normal" in="SourceGraphic" in2="effect1_dropShadow" result="shape"/>
</filter>
<filter id="filter5_d" x="40" y="92.8462" width="141.924" height="148.305" filterUnits="userSpaceOnUse" color-interpolation-filters="sRGB">
<feFlood flood-opacity="0" result="BackgroundImageFix"/>
<feColorMatrix in="SourceAlpha" type="matrix" values="0 0 0 0 0 0 0 0 0 0 0 0 0 0 0 0 0 0 127 0"/>
<feOffset dy="4"/>
<feGaussianBlur stdDeviation="25"/>
<feColorMatrix type="matrix" values="0 0 0 0 0 0 0 0 0 0 0 0 0 0 0 0 0 0 0.25 0"/>
<feBlend mode="normal" in2="BackgroundImageFix" result="effect1_dropShadow"/>
<feBlend mode="normal" in="SourceGraphic" in2="effect1_dropShadow" result="shape"/>
</filter>
<filter id="filter6_d" x="80" y="69.8082" width="141.924" height="148.305" filterUnits="userSpaceOnUse" color-interpolation-filters="sRGB">
<feFlood flood-opacity="0" result="BackgroundImageFix"/>
<feColorMatrix in="SourceAlpha" type="matrix" values="0 0 0 0 0 0 0 0 0 0 0 0 0 0 0 0 0 0 127 0"/>
<feOffset dy="4"/>
<feGaussianBlur stdDeviation="25"/>
<feColorMatrix type="matrix" values="0 0 0 0 0 0 0 0 0 0 0 0 0 0 0 0 0 0 0.25 0"/>
<feBlend mode="normal" in2="BackgroundImageFix" result="effect1_dropShadow"/>
<feBlend mode="normal" in="SourceGraphic" in2="effect1_dropShadow" result="shape"/>
</filter>
<linearGradient id="paint0_linear" x1="111" y1="93.9999" x2="111" y2="140" gradientUnits="userSpaceOnUse">
<stop stop-color="#E57373" stop-opacity="0.44"/>
<stop offset="0.39779" stop-color="#C57497"/>
<stop offset="0.690608" stop-color="#AE74B1"/>
<stop offset="1" stop-color="#9575CD" stop-opacity="0.51"/>
</linearGradient>
<linearGradient id="paint1_linear" x1="151" y1="70.962" x2="151" y2="116.962" gradientUnits="userSpaceOnUse">
<stop stop-color="#E57373" stop-opacity="0.44"/>
<stop offset="0.39779" stop-color="#C57497"/>
<stop offset="0.690608" stop-color="#AE74B1"/>
<stop offset="1" stop-color="#9575CD" stop-opacity="0.51"/>
</linearGradient>
<linearGradient id="paint2_linear" x1="111" y1="48" x2="111" y2="94" gradientUnits="userSpaceOnUse">
<stop stop-color="#E57373" stop-opacity="0.44"/>
<stop offset="0.39779" stop-color="#C57497"/>
<stop offset="0.690608" stop-color="#AE74B1"/>
<stop offset="1" stop-color="#9575CD" stop-opacity="0.51"/>
</linearGradient>
<linearGradient id="paint3_linear" x1="71" y1="70.962" x2="71" y2="116.962" gradientUnits="userSpaceOnUse">
<stop stop-color="#E57373" stop-opacity="0.44"/>
<stop offset="0.39779" stop-color="#C57497"/>
<stop offset="0.690608" stop-color="#AE74B1"/>
<stop offset="1" stop-color="#9575CD" stop-opacity="0.51"/>
</linearGradient>
<linearGradient id="paint4_linear" x1="71" y1="116.962" x2="71" y2="162.962" gradientUnits="userSpaceOnUse">
<stop stop-color="#E57373" stop-opacity="0.44"/>
<stop offset="0.39779" stop-color="#C57497"/>
<stop offset="0.690608" stop-color="#AE74B1"/>
<stop offset="1" stop-color="#9575CD" stop-opacity="0.51"/>
</linearGradient>
<linearGradient id="paint5_linear" x1="111" y1="140" x2="111" y2="186" gradientUnits="userSpaceOnUse">
<stop stop-color="#E57373" stop-opacity="0.44"/>
<stop offset="0.39779" stop-color="#C57497"/>
<stop offset="0.690608" stop-color="#AE74B1"/>
<stop offset="1" stop-color="#9575CD" stop-opacity="0.51"/>
</linearGradient>
<linearGradient id="paint6_linear" x1="151" y1="116.962" x2="151" y2="162.962" gradientUnits="userSpaceOnUse">
<stop stop-color="#E57373" stop-opacity="0.44"/>
<stop offset="0.39779" stop-color="#C57497"/>
<stop offset="0.690608" stop-color="#AE74B1"/>
<stop offset="1" stop-color="#9575CD" stop-opacity="0.51"/>
</linearGradient>
</defs>
</svg>
